<svg width="64" height="31" viewBox="0 0 64 31" fill="none" xmlns="http://www.w3.org/2000/svg">
<path d="M1.13778 27H3.90554V22.7557H6.23224C9.2429 22.7557 10.9943 20.9595 10.9943 18.3452C10.9943 15.7436 9.27486 13.9091 6.30256 13.9091H1.13778V27ZM3.90554 20.5376V16.1719H5.77202C7.37003 16.1719 8.14347 17.0412 8.14347 18.3452C8.14347 19.6428 7.37003 20.5376 5.7848 20.5376H3.90554ZM15.464 13.9091H12.7409V27H15.464V13.9091ZM20.445 27.1854C21.896 27.1854 22.8356 26.5526 23.315 25.6385H23.3917V27H25.9741V20.3778C25.9741 18.0384 23.9925 17.054 21.8065 17.054C19.4542 17.054 17.9073 18.179 17.5302 19.9688L20.0487 20.1733C20.234 19.5213 20.8157 19.0419 21.7937 19.0419C22.7205 19.0419 23.2511 19.5085 23.2511 20.3139V20.3523C23.2511 20.9851 22.5799 21.0682 20.8732 21.2344C18.93 21.4134 17.185 22.0653 17.185 24.2578C17.185 26.201 18.5721 27.1854 20.445 27.1854ZM21.2248 25.3061C20.3874 25.3061 19.7866 24.9162 19.7866 24.1683C19.7866 23.4013 20.4194 23.0241 21.3782 22.8899C21.9727 22.8068 22.9442 22.6662 23.2702 22.4489V23.4908C23.2702 24.5199 22.4201 25.3061 21.2248 25.3061ZM36.2557 19.9815C36.0128 18.1726 34.5554 17.054 32.0753 17.054C29.5632 17.054 27.9077 18.2173 27.9141 20.1094C27.9077 21.5795 28.8345 22.532 30.7521 22.9155L32.4524 23.2543C33.3089 23.4268 33.6989 23.7401 33.7116 24.2322C33.6989 24.8139 33.0661 25.2294 32.1136 25.2294C31.142 25.2294 30.4964 24.8139 30.3303 24.0149L27.652 24.1555C27.9077 26.0348 29.5057 27.1918 32.1072 27.1918C34.6513 27.1918 36.473 25.8942 36.4794 23.9574C36.473 22.5384 35.5462 21.6882 33.6413 21.2983L31.8643 20.9403C30.9503 20.7422 30.6115 20.429 30.6179 19.956C30.6115 19.3679 31.2763 18.9844 32.12 18.9844C33.0661 18.9844 33.6286 19.5021 33.7628 20.1349L36.2557 19.9815ZM38.1941 27H40.9171V21.1065C40.9171 20.0199 41.6074 19.2976 42.5151 19.2976C43.41 19.2976 44.0108 19.9112 44.0108 20.8764V27H46.6507V21.0043C46.6507 19.9879 47.2324 19.2976 48.2232 19.2976C49.0925 19.2976 49.7445 19.8409 49.7445 20.9339V27H52.4611V20.397C52.4611 18.2685 51.1955 17.054 49.3674 17.054C47.9292 17.054 46.8105 17.7891 46.4078 18.9141H46.3056C45.9924 17.7763 44.9888 17.054 43.6401 17.054C42.3169 17.054 41.3134 17.7571 40.9043 18.9141H40.7892V17.1818H38.1941V27ZM57.4118 27.1854C58.8627 27.1854 59.8024 26.5526 60.2818 25.6385H60.3585V27H62.9409V20.3778C62.9409 18.0384 60.9593 17.054 58.7733 17.054C56.421 17.054 54.8741 18.179 54.497 19.9688L57.0154 20.1733C57.2008 19.5213 57.7825 19.0419 58.7605 19.0419C59.6873 19.0419 60.2179 19.5085 60.2179 20.3139V20.3523C60.2179 20.9851 59.5467 21.0682 57.84 21.2344C55.8968 21.4134 54.1518 22.0653 54.1518 24.2578C54.1518 26.201 55.5389 27.1854 57.4118 27.1854ZM58.1916 25.3061C57.3542 25.3061 56.7534 24.9162 56.7534 24.1683C56.7534 23.4013 57.3862 23.0241 58.345 22.8899C58.9395 22.8068 59.911 22.6662 60.237 22.4489V23.4908C60.237 24.5199 59.3869 25.3061 58.1916 25.3061Z" fill="#FF4D4D"/>
<path d="M2.59091 12.1236C3.55824 12.1236 4.18466 11.7017 4.50426 11.0923H4.5554V12H6.27699V7.58523C6.27699 6.02557 4.95597 5.36932 3.49858 5.36932C1.9304 5.36932 0.899148 6.11932 0.647727 7.3125L2.3267 7.44886C2.45028 7.0142 2.83807 6.6946 3.49006 6.6946C4.10795 6.6946 4.46165 7.00568 4.46165 7.54261V7.56818C4.46165 7.99006 4.0142 8.04545 2.87642 8.15625C1.58097 8.27557 0.417614 8.71023 0.417614 10.1719C0.417614 11.4673 1.34233 12.1236 2.59091 12.1236ZM3.1108 10.8707C2.55256 10.8707 2.15199 10.6108 2.15199 10.1122C2.15199 9.60085 2.57386 9.34943 3.21307 9.25994C3.60938 9.20455 4.2571 9.1108 4.47443 8.96591V9.66051C4.47443 10.3466 3.90767 10.8707 3.1108 10.8707ZM13.5533 5.45455H11.6314L10.2763 10.1378H10.2081L8.84872 5.45455H6.93111L9.21946 12H11.2649L13.5533 5.45455ZM16.1612 12.1236C17.1286 12.1236 17.755 11.7017 18.0746 11.0923H18.1257V12H19.8473V7.58523C19.8473 6.02557 18.5263 5.36932 17.0689 5.36932C15.5007 5.36932 14.4695 6.11932 14.218 7.3125L15.897 7.44886C16.0206 7.0142 16.4084 6.6946 17.0604 6.6946C17.6783 6.6946 18.032 7.00568 18.032 7.54261V7.56818C18.032 7.99006 17.5845 8.04545 16.4467 8.15625C15.1513 8.27557 13.9879 8.71023 13.9879 10.1719C13.9879 11.4673 14.9126 12.1236 16.1612 12.1236ZM16.6811 10.8707C16.1229 10.8707 15.7223 10.6108 15.7223 10.1122C15.7223 9.60085 16.1442 9.34943 16.7834 9.25994C17.1797 9.20455 17.8274 9.1108 18.0447 8.96591V9.66051C18.0447 10.3466 17.478 10.8707 16.6811 10.8707ZM21.2557 12H23.071V5.45455H21.2557V12ZM22.1676 4.6108C22.7088 4.6108 23.152 4.19744 23.152 3.69034C23.152 3.1875 22.7088 2.77415 22.1676 2.77415C21.6307 2.77415 21.1875 3.1875 21.1875 3.69034C21.1875 4.19744 21.6307 4.6108 22.1676 4.6108ZM26.3406 3.27273H24.5252V12H26.3406V3.27273Z" fill="black"/>
<line x1="28" y1="11.5" x2="64" y2="11.5" stroke="#FF4D4D"/>
</svg>
