<svg aria-hidden="true" style="position: absolute; width: 0; height: 0; overflow: hidden;" version="1.1" xmlns="http://www.w3.org/2000/svg" xmlns:xlink="http://www.w3.org/1999/xlink">
<defs>
<symbol id="icon-share-2" viewBox="0 0 24 24">
<path d="M16.214 18.098c0.025-0.033 0.048-0.067 0.070-0.104 0.020-0.035 0.038-0.071 0.054-0.107 0.073-0.108 0.156-0.209 0.248-0.301 0.363-0.363 0.861-0.586 1.414-0.586s1.051 0.223 1.414 0.586 0.586 0.861 0.586 1.414-0.223 1.051-0.586 1.414-0.861 0.586-1.414 0.586-1.051-0.223-1.414-0.586-0.586-0.861-0.586-1.414c0-0.325 0.077-0.631 0.214-0.902zM16.301 6.056c-0.009-0.017-0.018-0.034-0.028-0.051s-0.020-0.034-0.031-0.050c-0.154-0.283-0.242-0.608-0.242-0.955 0-0.553 0.223-1.051 0.586-1.414s0.861-0.586 1.414-0.586 1.051 0.223 1.414 0.586 0.586 0.861 0.586 1.414-0.223 1.051-0.586 1.414-0.861 0.586-1.414 0.586-1.051-0.223-1.414-0.586c-0.108-0.108-0.204-0.228-0.285-0.358zM7.699 10.944c0.009 0.017 0.018 0.034 0.028 0.051s0.020 0.034 0.031 0.050c0.154 0.283 0.242 0.608 0.242 0.955s-0.088 0.672-0.243 0.956c-0.011 0.016-0.021 0.033-0.031 0.050s-0.019 0.033-0.027 0.050c-0.081 0.13-0.177 0.25-0.285 0.358-0.363 0.363-0.861 0.586-1.414 0.586s-1.051-0.223-1.414-0.586-0.586-0.861-0.586-1.414 0.223-1.051 0.586-1.414 0.861-0.586 1.414-0.586 1.051 0.223 1.414 0.586c0.108 0.108 0.204 0.228 0.285 0.358zM14.15 6.088l-5.308 3.097c-0.004-0.005-0.009-0.009-0.014-0.014-0.722-0.722-1.724-1.171-2.828-1.171s-2.106 0.449-2.828 1.172-1.172 1.724-1.172 2.828 0.449 2.106 1.172 2.828 1.724 1.172 2.828 1.172 2.106-0.449 2.828-1.172c0.005-0.005 0.009-0.009 0.014-0.014l5.309 3.094c-0.098 0.347-0.151 0.714-0.151 1.092 0 1.104 0.449 2.106 1.172 2.828s1.724 1.172 2.828 1.172 2.106-0.449 2.828-1.172 1.172-1.724 1.172-2.828-0.449-2.106-1.172-2.828-1.724-1.172-2.828-1.172-2.106 0.449-2.828 1.172c-0.003 0.003-0.007 0.007-0.010 0.010l-5.312-3.095c0.098-0.346 0.15-0.71 0.15-1.087s-0.052-0.742-0.15-1.088l5.308-3.098c0.004 0.005 0.009 0.009 0.014 0.014 0.722 0.723 1.724 1.172 2.828 1.172s2.106-0.449 2.828-1.172 1.172-1.724 1.172-2.828-0.449-2.106-1.172-2.828-1.724-1.172-2.828-1.172-2.106 0.449-2.828 1.172-1.172 1.724-1.172 2.828c0 0.377 0.052 0.742 0.15 1.088z"></path>
</symbol>
<symbol id="icon-search" viewBox="0 0 24 24">
<path d="M16.041 15.856c-0.034 0.026-0.067 0.055-0.099 0.087s-0.060 0.064-0.087 0.099c-1.258 1.213-2.969 1.958-4.855 1.958-1.933 0-3.682-0.782-4.95-2.050s-2.050-3.017-2.050-4.95 0.782-3.682 2.050-4.95 3.017-2.050 4.95-2.050 3.682 0.782 4.95 2.050 2.050 3.017 2.050 4.95c0 1.886-0.745 3.597-1.959 4.856zM21.707 20.293l-3.675-3.675c1.231-1.54 1.968-3.493 1.968-5.618 0-2.485-1.008-4.736-2.636-6.364s-3.879-2.636-6.364-2.636-4.736 1.008-6.364 2.636-2.636 3.879-2.636 6.364 1.008 4.736 2.636 6.364 3.879 2.636 6.364 2.636c2.125 0 4.078-0.737 5.618-1.968l3.675 3.675c0.391 0.391 1.024 0.391 1.414 0s0.391-1.024 0-1.414z"></path>
</symbol>
<symbol id="icon-check-circle" viewBox="0 0 24 24">
<path d="M21 11.080v0.92c-0.001 2.485-1.009 4.733-2.64 6.362s-3.88 2.634-6.365 2.632-4.734-1.009-6.362-2.64-2.634-3.879-2.633-6.365 1.009-4.733 2.64-6.362 3.88-2.634 6.365-2.633c1.33 0.001 2.586 0.289 3.649 0.775 0.502 0.23 1.096 0.008 1.325-0.494s0.008-1.096-0.494-1.325c-1.327-0.606-2.866-0.955-4.479-0.956-3.037-0.002-5.789 1.229-7.78 3.217s-3.224 4.74-3.226 7.777 1.229 5.789 3.217 7.78 4.739 3.225 7.776 3.226 5.789-1.229 7.78-3.217 3.225-4.739 3.227-7.777v-0.92c0-0.552-0.448-1-1-1s-1 0.448-1 1zM21.293 3.293l-9.293 9.302-2.293-2.292c-0.391-0.391-1.024-0.391-1.414 0s-0.391 1.024 0 1.414l3 3c0.391 0.391 1.024 0.39 1.415 0l10-10.010c0.39-0.391 0.39-1.024-0.001-1.414s-1.024-0.39-1.414 0.001z"></path>
</symbol>
</defs>
</svg>
